<svg width="117" height="168" viewBox="0 0 117 168" fill="none" xmlns="http://www.w3.org/2000/svg">
<g filter="url(#filter0_d_402_127)">
<path d="M29 151.044H34.02V152.184H27.6V138.204H29V151.044ZM36.718 139.204C36.438 139.204 36.198 139.104 35.998 138.904C35.798 138.704 35.698 138.457 35.698 138.164C35.698 137.871 35.798 137.631 35.998 137.444C36.198 137.244 36.438 137.144 36.718 137.144C36.998 137.144 37.238 137.244 37.438 137.444C37.638 137.631 37.738 137.871 37.738 138.164C37.738 138.457 37.638 138.704 37.438 138.904C37.238 139.104 36.998 139.204 36.718 139.204ZM37.418 141.264V152.184H36.018V141.264H37.418ZM41.9683 143.684C42.3283 142.924 42.8816 142.304 43.6283 141.824C44.3883 141.344 45.2816 141.104 46.3083 141.104C47.3083 141.104 48.2016 141.337 48.9883 141.804C49.7749 142.257 50.3883 142.911 50.8283 143.764C51.2816 144.604 51.5083 145.584 51.5083 146.704C51.5083 147.824 51.2816 148.811 50.8283 149.664C50.3883 150.517 49.7683 151.177 48.9683 151.644C48.1816 152.111 47.2949 152.344 46.3083 152.344C45.2683 152.344 44.3683 152.111 43.6083 151.644C42.8616 151.164 42.3149 150.544 41.9683 149.784V152.184H40.5883V137.384H41.9683V143.684ZM50.0883 146.704C50.0883 145.797 49.9083 145.017 49.5483 144.364C49.2016 143.697 48.7216 143.191 48.1083 142.844C47.4949 142.497 46.8016 142.324 46.0283 142.324C45.2816 142.324 44.5949 142.504 43.9683 142.864C43.3549 143.224 42.8683 143.737 42.5083 144.404C42.1483 145.071 41.9683 145.844 41.9683 146.724C41.9683 147.604 42.1483 148.377 42.5083 149.044C42.8683 149.711 43.3549 150.224 43.9683 150.584C44.5949 150.944 45.2816 151.124 46.0283 151.124C46.8016 151.124 47.4949 150.951 48.1083 150.604C48.7216 150.244 49.2016 149.731 49.5483 149.064C49.9083 148.384 50.0883 147.597 50.0883 146.704ZM55.4844 143.204C55.791 142.524 56.2577 141.997 56.8844 141.624C57.5244 141.251 58.3044 141.064 59.2244 141.064V142.524H58.8444C57.831 142.524 57.0177 142.797 56.4044 143.344C55.791 143.891 55.4844 144.804 55.4844 146.084V152.184H54.0844V141.264H55.4844V143.204ZM60.6905 146.704C60.6905 145.584 60.9105 144.604 61.3505 143.764C61.8038 142.911 62.4238 142.257 63.2105 141.804C64.0105 141.337 64.9105 141.104 65.9105 141.104C66.9505 141.104 67.8438 141.344 68.5905 141.824C69.3505 142.304 69.8971 142.917 70.2305 143.664V141.264H71.6305V152.184H70.2305V149.764C69.8838 150.511 69.3305 151.131 68.5705 151.624C67.8238 152.104 66.9305 152.344 65.8905 152.344C64.9038 152.344 64.0105 152.111 63.2105 151.644C62.4238 151.177 61.8038 150.517 61.3505 149.664C60.9105 148.811 60.6905 147.824 60.6905 146.704ZM70.2305 146.724C70.2305 145.844 70.0505 145.071 69.6905 144.404C69.3305 143.737 68.8371 143.224 68.2105 142.864C67.5971 142.504 66.9171 142.324 66.1705 142.324C65.3971 142.324 64.7038 142.497 64.0905 142.844C63.4771 143.191 62.9905 143.697 62.6305 144.364C62.2838 145.017 62.1105 145.797 62.1105 146.704C62.1105 147.597 62.2838 148.384 62.6305 149.064C62.9905 149.731 63.4771 150.244 64.0905 150.604C64.7038 150.951 65.3971 151.124 66.1705 151.124C66.9171 151.124 67.5971 150.944 68.2105 150.584C68.8371 150.224 69.3305 149.711 69.6905 149.044C70.0505 148.377 70.2305 147.604 70.2305 146.724ZM76.2266 143.204C76.5332 142.524 76.9999 141.997 77.6266 141.624C78.2666 141.251 79.0466 141.064 79.9666 141.064V142.524H79.5866C78.5732 142.524 77.7599 142.797 77.1466 143.344C76.5332 143.891 76.2266 144.804 76.2266 146.084V152.184H74.8266V141.264H76.2266V143.204ZM91.0727 141.264L84.5927 157.324H83.1327L85.2527 152.124L80.7727 141.264H82.3127L86.0327 150.584L89.6327 141.264H91.0727Z" fill="#F8F8D8"/>
<path d="M20 126.702C20 97.5333 20 52.9796 20 47.8026C20 47.4832 20.1593 47.1903 20.4178 47.0027C49.5725 25.8452 66.6195 25.9761 97.5565 47.0044C97.8297 47.1901 98 47.4973 98 47.8276C98 53.1213 98 97.5796 98 126.702M20 126.702C49.9088 132.78 67.005 132.574 98 126.702M20 126.702C34.669 120.105 43.4607 118.277 59.5065 118.485C74.8428 118.685 83.8861 120.615 98 126.702" stroke="#F8F8D8" stroke-width="2"/>
<path d="M34.8829 29.1701C33.7728 29.8337 32.6117 30.1781 31.3997 30.2035C30.1809 30.2174 29.0312 29.9182 27.9507 29.3058C26.8748 28.6751 25.9845 27.7704 25.28 26.5915C24.5754 25.4127 24.2036 24.2059 24.1646 22.971C24.1301 21.7179 24.4111 20.5636 25.0074 19.5082C25.5969 18.4413 26.4467 17.5761 27.5569 16.9126C28.6785 16.2422 29.8487 15.9001 31.0675 15.8862C32.2795 15.8608 33.4234 16.1635 34.4993 16.7941C35.5684 17.4133 36.4553 18.3124 37.1598 19.4912C37.8644 20.67 38.2396 21.8826 38.2855 23.1289C38.3246 24.3638 38.0493 25.5146 37.4598 26.5815C36.8635 27.6369 36.0045 28.4998 34.8829 29.1701ZM34.257 28.1229C35.1497 27.5894 35.8278 26.9045 36.2911 26.0684C36.7544 25.2323 36.9629 24.3077 36.9167 23.2946C36.8635 22.2701 36.5326 21.2486 35.9238 20.23C35.315 19.2114 34.5754 18.4418 33.7051 17.9212C32.8348 17.4007 31.9217 17.1464 30.9658 17.1585C30.01 17.1706 29.0857 17.4434 28.193 17.977C27.3003 18.5105 26.6223 19.1954 26.159 20.0315C25.6956 20.8676 25.4871 21.7922 25.5334 22.8053C25.5797 23.8183 25.9072 24.8342 26.516 25.8528C27.1248 26.8714 27.8678 27.6467 28.745 28.1787C29.6153 28.6992 30.5284 28.9535 31.4842 28.9414C32.4401 28.9293 33.3643 28.6565 34.257 28.1229Z" fill="#F8F8D8"/>
<path d="M61.3681 11.1246L58.8458 22.2862L57.4504 22.3998L53.6968 13.5152L51.4303 22.8901L50.015 23.0054L45.7199 12.399L47.1352 12.2838L50.6174 21.5316L52.8961 11.8146L54.2915 11.7009L58.0743 20.9444L59.9926 11.2366L61.3681 11.1246Z" fill="#F8F8D8"/>
<path d="M74.4211 11.2446L71.0076 24.1198L69.7897 23.7969L73.2032 10.9217L74.4211 11.2446Z" fill="#F8F8D8"/>
<path d="M81.8052 28.9823C80.7208 28.354 79.9762 27.5913 79.5714 26.6942C79.1848 25.7922 79.2018 24.8851 79.6224 23.9731L80.8683 24.695C80.6185 25.2591 80.6159 25.8354 80.8605 26.424C81.1233 27.0077 81.6296 27.5168 82.3795 27.9513C83.0371 28.3323 83.6407 28.474 84.1904 28.3764C84.7516 28.2855 85.1658 28.0093 85.4332 27.5478C85.6204 27.2248 85.6703 26.8993 85.5829 26.5713C85.4956 26.2433 85.3238 25.9281 85.0676 25.6255C84.8297 25.3182 84.4797 24.9382 84.0176 24.4856C83.4208 23.8932 82.9567 23.3778 82.6253 22.9392C82.2938 22.5006 82.0759 22.0123 81.9717 21.4741C81.8856 20.9312 82.0197 20.354 82.374 19.7425C82.6413 19.281 83.0271 18.9344 83.5312 18.7025C84.0354 18.4707 84.6081 18.3865 85.2494 18.4498C85.8907 18.5132 86.5344 18.7321 87.1805 19.1064C88.1957 19.6946 88.8644 20.4287 89.1866 21.3089C89.5155 22.1774 89.4423 23.075 88.9671 24.0016L87.7558 23.2998C88.042 22.726 88.0801 22.1548 87.8702 21.5863C87.6785 21.0129 87.2365 20.5257 86.5443 20.1246C85.9328 19.7704 85.3532 19.6272 84.8054 19.695C84.2575 19.7628 83.86 20.0102 83.6127 20.4371C83.3988 20.8062 83.3312 21.1755 83.4101 21.5447C83.5071 21.9092 83.6828 22.2575 83.9372 22.5898C84.1982 22.9106 84.5646 23.3154 85.0363 23.8045C85.6101 24.3835 86.0487 24.8764 86.3522 25.2834C86.6557 25.6904 86.8548 26.1448 86.9494 26.6464C87.0439 27.1481 86.9366 27.6792 86.6273 28.2396C86.3332 28.7473 85.9307 29.1228 85.4199 29.3661C84.9157 29.598 84.3488 29.6855 83.719 29.6288C83.0892 29.5722 82.4513 29.3567 81.8052 28.9823Z" fill="#F8F8D8"/>
<path d="M51.6533 78.1606L57.6432 84.2399C58.0349 84.6375 58.6762 84.6375 59.0679 84.2399L65.0578 78.1606M51.6533 78.1606C51.6533 78.1606 54.9443 72.4048 58.3556 72.4048C62.2222 72.4048 65.0578 78.1606 65.0578 78.1606M51.6533 78.1606V84.9629M51.6533 78.1606L48.2646 69.3165C48.1211 68.9421 47.8685 68.6195 47.5395 68.3905L30 56.1838V64.5559M58.3556 93.335L65.0578 84.9629M58.3556 93.335C58.3556 93.335 72.5333 101.184 65.0578 101.184C57.5822 101.184 56.0356 101.184 51.1378 101.184C46.24 101.184 58.3556 93.335 58.3556 93.335ZM58.3556 93.335L51.6533 84.9629M65.0578 84.9629V78.1606M65.0578 84.9629L74.9485 78.7487C75.5309 78.3827 75.8844 77.7431 75.8844 77.0552V73.4454C75.8844 72.7932 76.2025 72.1819 76.7367 71.8076L81.2978 68.6112L87.7422 64.5559M65.0578 84.9629L69.6978 87.5792L73.3067 86.0094L80.0089 81.3001L85.68 72.6664L87.7422 64.5559M65.0578 78.1606L68.434 69.3493C68.5852 68.9546 68.8576 68.6179 69.2121 68.3877L88 56.1838L87.7422 64.5559M51.6533 84.9629L47.0133 87.5792L43.4044 86.0094L36.7022 81.3001L30.7733 72.6664L30 64.5559M51.6533 84.9629L41.7627 78.7487C41.1802 78.3827 40.8267 77.7431 40.8267 77.0552V73.4994C40.8267 72.8174 40.4791 72.1824 39.9046 71.8148L34.8978 68.6112L30 64.5559" stroke="#F8F8D8" stroke-width="2"/>
<path d="M105 48.1838V76.1838" stroke="#F8F8D8" stroke-width="2"/>
<path d="M12 48.1838V76.1838" stroke="#F8F8D8" stroke-width="2"/>
<path d="M105 95.1838V123.184" stroke="#F8F8D8" stroke-width="2"/>
<path d="M12 96.1838V124.184" stroke="#F8F8D8" stroke-width="2"/>
<path d="M30.2648 21.1203L32.9547 21.9948L32.0802 24.6846L29.3903 23.8101L30.2648 21.1203Z" fill="#F8F8D8"/>
<mask id="path-13-inside-1_402_127" fill="white">
<path d="M66.25 145.184L67.5 146.434L66.25 147.684L65 146.434L66.25 145.184Z"/>
</mask>
<path d="M66.25 145.184L67.6642 143.77L66.25 142.355L64.8358 143.77L66.25 145.184ZM67.5 146.434L68.9142 147.848L70.3284 146.434L68.9142 145.02L67.5 146.434ZM66.25 147.684L64.8358 149.098L66.25 150.512L67.6642 149.098L66.25 147.684ZM65 146.434L63.5858 145.02L62.1716 146.434L63.5858 147.848L65 146.434ZM64.8358 146.598L66.0858 147.848L68.9142 145.02L67.6642 143.77L64.8358 146.598ZM66.0858 145.02L64.8358 146.27L67.6642 149.098L68.9142 147.848L66.0858 145.02ZM67.6642 146.27L66.4142 145.02L63.5858 147.848L64.8358 149.098L67.6642 146.27ZM66.4142 147.848L67.6642 146.598L64.8358 143.77L63.5858 145.02L66.4142 147.848Z" fill="#F8F8D8" mask="url(#path-13-inside-1_402_127)"/>
<path d="M104.414 86.1838L105 85.5981L105.586 86.1838L105 86.7696L104.414 86.1838Z" stroke="#F8F8D8" stroke-width="2"/>
<path d="M11.4142 86.1838L12 85.5981L12.5858 86.1838L12 86.7696L11.4142 86.1838Z" stroke="#F8F8D8" stroke-width="2"/>
</g>
<defs>
<filter id="filter0_d_402_127" x="0" y="0.921722" width="117" height="166.402" filterUnits="userSpaceOnUse" color-interpolation-filters="sRGB">
<feFlood flood-opacity="0" result="BackgroundImageFix"/>
<feColorMatrix in="SourceAlpha" type="matrix" values="0 0 0 0 0 0 0 0 0 0 0 0 0 0 0 0 0 0 127 0" result="hardAlpha"/>
<feOffset/>
<feGaussianBlur stdDeviation="5"/>
<feColorMatrix type="matrix" values="0 0 0 0 0.972549 0 0 0 0 0.972549 0 0 0 0 0.847059 0 0 0 0.5 0"/>
<feBlend mode="normal" in2="BackgroundImageFix" result="effect1_dropShadow_402_127"/>
<feBlend mode="normal" in="SourceGraphic" in2="effect1_dropShadow_402_127" result="shape"/>
</filter>
</defs>
</svg>
