<svg width="170" height="247" viewBox="0 0 170 247" fill="none" xmlns="http://www.w3.org/2000/svg">
<path d="M54.54 240.24H59.76V241H53.64V226.96H54.54V240.24ZM62.2641 227.72C62.0507 227.72 61.8707 227.653 61.7241 227.52C61.5774 227.373 61.5041 227.18 61.5041 226.94C61.5041 226.713 61.5774 226.527 61.7241 226.38C61.8707 226.233 62.0507 226.16 62.2641 226.16C62.4774 226.16 62.6574 226.233 62.8041 226.38C62.9507 226.527 63.0241 226.713 63.0241 226.94C63.0241 227.18 62.9507 227.373 62.8041 227.52C62.6574 227.653 62.4774 227.72 62.2641 227.72ZM62.7041 230.14V241H61.8041V230.14H62.7041ZM66.9033 233C67.2366 232.12 67.8033 231.4 68.6033 230.84C69.4033 230.28 70.3699 230 71.5033 230C72.5166 230 73.4166 230.227 74.2033 230.68C75.0033 231.133 75.6233 231.78 76.0633 232.62C76.5166 233.46 76.7433 234.44 76.7433 235.56C76.7433 236.68 76.5166 237.667 76.0633 238.52C75.6233 239.36 75.0033 240.013 74.2033 240.48C73.4166 240.933 72.5166 241.16 71.5033 241.16C70.3699 241.16 69.3966 240.88 68.5833 240.32C67.7833 239.76 67.2233 239.04 66.9033 238.16V241H66.0033V226.2H66.9033V233ZM75.8233 235.56C75.8233 234.573 75.6366 233.72 75.2633 233C74.8899 232.28 74.3633 231.733 73.6833 231.36C73.0166 230.973 72.2433 230.78 71.3633 230.78C70.5233 230.78 69.7633 230.98 69.0833 231.38C68.4033 231.767 67.8699 232.327 67.4833 233.06C67.0966 233.78 66.9033 234.613 66.9033 235.56C66.9033 236.52 67.0966 237.367 67.4833 238.1C67.8699 238.82 68.4033 239.38 69.0833 239.78C69.7633 240.167 70.5233 240.36 71.3633 240.36C72.2433 240.36 73.0166 240.167 73.6833 239.78C74.3633 239.393 74.8899 238.84 75.2633 238.12C75.6366 237.4 75.8233 236.547 75.8233 235.56ZM80.3603 232.38C80.627 231.58 81.1003 230.973 81.7803 230.56C82.4603 230.133 83.327 229.92 84.3803 229.92V230.86H84.0803C83.0136 230.86 82.127 231.167 81.4203 231.78C80.7136 232.38 80.3603 233.367 80.3603 234.74V241H79.4603V230.14H80.3603V232.38ZM85.8925 235.56C85.8925 234.44 86.1125 233.46 86.5525 232.62C87.0058 231.78 87.6258 231.133 88.4125 230.68C89.2125 230.227 90.1192 230 91.1325 230C92.2792 230 93.2525 230.28 94.0525 230.84C94.8525 231.4 95.4125 232.113 95.7325 232.98V230.14H96.6325V241H95.7325V238.14C95.4125 239.02 94.8458 239.747 94.0325 240.32C93.2325 240.88 92.2658 241.16 91.1325 241.16C90.1192 241.16 89.2125 240.933 88.4125 240.48C87.6258 240.013 87.0058 239.36 86.5525 238.52C86.1125 237.667 85.8925 236.68 85.8925 235.56ZM95.7325 235.56C95.7325 234.613 95.5325 233.78 95.1325 233.06C94.7458 232.327 94.2125 231.767 93.5325 231.38C92.8525 230.98 92.0925 230.78 91.2525 230.78C90.3725 230.78 89.5992 230.973 88.9325 231.36C88.2658 231.733 87.7458 232.28 87.3725 233C86.9992 233.72 86.8125 234.573 86.8125 235.56C86.8125 236.547 86.9992 237.4 87.3725 238.12C87.7458 238.84 88.2658 239.393 88.9325 239.78C89.6125 240.167 90.3858 240.36 91.2525 240.36C92.0925 240.36 92.8525 240.167 93.5325 239.78C94.2258 239.38 94.7658 238.82 95.1525 238.1C95.5392 237.367 95.7325 236.52 95.7325 235.56ZM100.81 232.38C101.076 231.58 101.55 230.973 102.23 230.56C102.91 230.133 103.776 229.92 104.83 229.92V230.86H104.53C103.463 230.86 102.576 231.167 101.87 231.78C101.163 232.38 100.81 233.367 100.81 234.74V241H99.9095V230.14H100.81V232.38ZM115.382 230.14L109.062 246.1H108.142L110.162 241L105.602 230.14H106.582L110.662 240L114.462 230.14H115.382Z" fill="#F8F8D8"/>
<path d="M17.5259 210.892C17.5259 158.946 17.5259 79.1185 17.5259 72.4037C17.5259 72.085 17.6851 71.8338 17.9426 71.6458C69.0709 34.3163 98.8221 34.5476 153.083 71.6476C153.356 71.8337 153.526 72.0922 153.526 72.4219C153.526 79.2611 153.526 158.993 153.526 210.892M17.5259 210.892C69.6746 221.529 99.4834 221.169 153.526 210.892M17.5259 210.892C43.1025 199.348 58.4316 196.148 86.409 196.513C113.149 196.863 128.917 200.241 153.526 210.892" stroke="#F8F8D8"/>
<path d="M32.8313 37.4396C31.7211 38.1031 30.5658 38.4441 29.3652 38.4627C28.1579 38.4698 27.0219 38.1545 25.9574 37.517C24.893 36.8795 24.0084 35.9714 23.3039 34.7925C22.5925 33.6022 22.2115 32.3931 22.161 31.1651C22.1037 29.9256 22.3675 28.7816 22.9524 27.733C23.5304 26.673 24.3745 25.8112 25.4847 25.1477C26.5948 24.4842 27.7536 24.1489 28.961 24.1418C30.1615 24.1233 31.294 24.4328 32.3585 25.0703C33.4161 25.6964 34.3007 26.6045 35.0121 27.7948C35.7166 28.9736 36.0976 30.1828 36.1549 31.4222C36.2122 32.6617 35.9519 33.8114 35.3738 34.8715C34.7889 35.92 33.9414 36.7761 32.8313 37.4396ZM32.4208 36.7529C33.3708 36.1852 34.0957 35.4489 34.5958 34.5443C35.0958 33.6396 35.317 32.6453 35.2594 31.5613C35.2133 30.4705 34.8619 29.3758 34.2052 28.2771C33.5417 27.1669 32.7405 26.3332 31.8016 25.7759C30.8742 25.2118 29.8937 24.9357 28.8601 24.9477C27.8265 24.9597 26.8348 25.2495 25.8848 25.8173C24.9349 26.385 24.2099 27.1212 23.7099 28.0259C23.2099 28.9305 22.9829 29.9283 23.0291 31.0191C23.0752 32.1099 23.4301 33.2104 24.0936 34.3205C24.7503 35.4193 25.548 36.2472 26.4869 36.8045C27.4257 37.3618 28.412 37.6344 29.4456 37.6225C30.4791 37.6105 31.4709 37.3207 32.4208 36.7529Z" fill="#F8F8D8"/>
<path d="M78.6105 11.2359L76.0833 22.3377L75.2261 22.4075L70.9967 13.1001L68.309 22.9709L67.4519 23.0407L63.1616 12.4941L64.0985 12.4178L67.8076 21.9883L70.4774 11.8983L71.3345 11.8285L75.5786 21.3153L77.6935 11.3106L78.6105 11.2359Z" fill="#F8F8D8"/>
<path d="M108.244 11.221L104.83 24.0961L104.047 23.8886L107.461 11.0134L108.244 11.221Z" fill="#F8F8D8"/>
<path d="M137.295 36.2914C136.245 35.6832 135.519 34.9545 135.117 34.1053C134.727 33.2628 134.739 32.3913 135.153 31.4908L135.949 31.952C135.652 32.5969 135.648 33.2419 135.937 33.8869C136.238 34.5387 136.82 35.1152 137.686 35.6165C138.401 36.031 139.07 36.1797 139.692 36.0627C140.333 35.9408 140.807 35.6145 141.115 35.0838C141.329 34.7146 141.387 34.3478 141.29 33.9834C141.211 33.6141 141.041 33.2691 140.78 32.9484C140.519 32.6276 140.144 32.2252 139.654 31.741C139.068 31.1553 138.613 30.6523 138.286 30.232C137.966 29.8001 137.76 29.3184 137.667 28.787C137.574 28.2555 137.702 27.6898 138.049 27.0899C138.303 26.6515 138.67 26.3246 139.149 26.1092C139.635 25.8822 140.178 25.7961 140.778 25.851C141.378 25.9058 141.978 26.107 142.578 26.4546C143.558 27.0228 144.205 27.7287 144.518 28.5724C144.848 29.4112 144.786 30.2766 144.331 31.1686L143.552 30.7174C143.878 30.0744 143.93 29.4264 143.708 28.7734C143.485 28.1205 142.976 27.5634 142.18 27.1022C141.51 26.7145 140.856 26.5667 140.217 26.6588C139.579 26.7509 139.115 27.045 138.828 27.5411C138.574 27.9795 138.488 28.4073 138.57 28.8246C138.67 29.237 138.855 29.6218 139.126 29.979C139.415 30.3313 139.813 30.762 140.319 31.2711C140.876 31.8252 141.301 32.3024 141.593 32.7027C141.903 33.0981 142.103 33.5376 142.193 34.0211C142.289 34.493 142.184 34.9943 141.876 35.525C141.595 36.0095 141.209 36.3711 140.716 36.6096C140.224 36.8481 139.677 36.9399 139.077 36.8851C138.477 36.8302 137.883 36.6323 137.295 36.2914Z" fill="#F8F8D8"/>
<path d="M73.0004 126.066L84.0342 137.265C84.4259 137.662 85.0672 137.662 85.4589 137.265L96.4927 126.066M73.0004 126.066C73.0004 126.066 78.7681 115.978 84.7466 115.978C91.5232 115.978 96.4927 126.066 96.4927 126.066M73.0004 126.066V137.987M73.0004 126.066L66.8957 110.134C66.7522 109.759 66.4996 109.437 66.1706 109.208L35.0513 87.5499V102.223M84.7466 152.66L96.4927 137.987M84.7466 152.66C84.7466 152.66 109.594 166.416 96.4927 166.416C83.3912 166.416 80.6806 166.416 72.0969 166.416C63.5131 166.416 84.7466 152.66 84.7466 152.66ZM84.7466 152.66L73.0004 137.987M96.4927 137.987V126.066M96.4927 137.987L114.531 126.654C115.114 126.288 115.467 125.648 115.467 124.96V117.019C115.467 116.367 115.785 115.755 116.32 115.381L124.955 109.33L136.249 102.223M96.4927 137.987L104.625 142.573L110.95 139.822L122.696 131.568L132.635 116.437L136.249 102.223M96.4927 126.066L102.585 110.166C102.736 109.772 103.009 109.435 103.363 109.205L136.701 87.5499L136.249 102.223M73.0004 137.987L64.8684 142.573L58.5436 139.822L46.7974 131.568L36.4066 116.437L35.0513 102.223M73.0004 137.987L54.9618 126.654C54.3794 126.288 54.0258 125.648 54.0258 124.96V117.073C54.0258 116.391 53.6783 115.756 53.1038 115.388L43.635 109.33L35.0513 102.223" stroke="#F8F8D8"/>
<path d="M166.495 73.5294V122.602" stroke="#F8F8D8"/>
<path d="M3.50537 73.5294V122.602" stroke="#F8F8D8"/>
<path d="M166.495 155.9V204.973" stroke="#F8F8D8"/>
<path d="M3.50537 157.653V206.725" stroke="#F8F8D8"/>
<path d="M27.7822 29.9078L30.472 30.7822L29.5975 33.4721L26.9077 32.5976L27.7822 29.9078Z" fill="#F8F8D8"/>
<path d="M90.7071 235.5L91.5 234.707L92.2929 235.5L91.5 236.293L90.7071 235.5Z" stroke="#F8F8D8"/>
<path d="M163.697 140.127L166.495 137.329L169.293 140.127L166.495 142.925L163.697 140.127Z" stroke="#F8F8D8"/>
<path d="M0.707107 140.127L3.50515 137.329L6.3032 140.127L3.50515 142.925L0.707107 140.127Z" stroke="#F8F8D8"/>
</svg>
