<svg width="241" height="82" viewBox="0 0 241 82" fill="none" xmlns="http://www.w3.org/2000/svg">
<path fill-rule="evenodd" clip-rule="evenodd" d="M43.6623 2.82843L40.8339 0L38.0055 2.82843L20.9984 19.8355L24.3305 22.1602L38.0055 8.48528L40.8339 5.65685L43.6623 8.48528L57.0625 21.8855L60.4885 19.6546L43.6623 2.82843ZM72.0984 31.2645L70.9538 35.7768L73.1825 38.0055L76.0109 40.8339L73.1825 43.6623L52.1283 64.7165C51.7781 65.2284 51.3464 65.6361 50.9014 65.9434L43.6623 73.1825L40.8339 76.0109L38.0055 73.1825L31.6744 66.8514C31.5116 66.8159 31.3455 66.7723 31.1778 66.7187C30.4505 66.4863 29.3942 65.964 28.6613 64.8167C28.3168 64.2776 28.1251 63.7288 28.0335 63.2105L8.48528 43.6623L5.65685 40.8339L8.48528 38.0055L9.60637 36.8844L9.21616 36.3147L9.11828 35.2857L8.80821 32.0257L2.82843 38.0055L0 40.8339L2.82843 43.6623L38.0055 78.8393L40.8339 81.6678L43.6623 78.8393L78.8393 43.6623L81.6678 40.8339L78.8393 38.0055L72.0984 31.2645Z" fill="#F8F8D8"/>
<path d="M33.6156 40.3185L39.4876 46.2929C39.8795 46.6916 40.5221 46.6916 40.914 46.2929L46.7859 40.3185M33.6156 40.3185C33.6156 40.3185 36.8491 34.6493 40.2008 34.6493C43.9999 34.6493 46.7859 40.3185 46.7859 40.3185M33.6156 40.3185V47.0185M33.6156 40.3185L30.2893 31.616C30.1463 31.2417 29.8941 30.919 29.5655 30.6898L12.3406 18.6724V26.9185M40.2008 55.2647L46.7859 47.0185M40.2008 55.2647C40.2008 55.2647 54.1309 62.9954 46.7859 62.9954C39.441 62.9954 37.9213 62.9954 33.1091 62.9954C28.2969 62.9954 40.2008 55.2647 40.2008 55.2647ZM40.2008 55.2647L33.6156 47.0185M46.7859 47.0185V40.3185M46.7859 47.0185L56.4893 40.9069C57.0707 40.5407 57.4235 39.9017 57.4235 39.2146V35.6884C57.4235 35.037 57.7407 34.4264 58.2738 34.0519L62.7422 30.9127L69.0741 26.9185M46.7859 47.0185L51.3449 49.5954L54.8907 48.0493L61.4758 43.4108L67.0479 34.907L69.0741 26.9185M46.7859 40.3185L50.0997 31.6488C50.2505 31.2542 50.5225 30.9174 50.8765 30.6869L69.3274 18.6724L69.0741 26.9185M33.6156 47.0185L29.0567 49.5954L25.5109 48.0493L18.9257 43.4108L13.1004 34.907L12.3406 26.9185M33.6156 47.0185L23.9122 40.9069C23.3308 40.5407 22.9781 39.9017 22.9781 39.2146V35.7425C22.9781 35.0612 22.6313 34.4269 22.0579 34.059L17.1528 30.9127L12.3406 26.9185" stroke="#F8F8D8" stroke-width="4"/>
<g clip-path="url(#clip0_246_13)">
<path d="M98.3999 17.08C98.3999 7.08001 105.92 2.56001 114.16 2.52001C122.44 2.56001 129.96 7.08001 129.96 17.08C129.96 27.28 122.44 31.6 114.16 31.64C105.92 31.6 98.3999 27.28 98.3999 17.08ZM114.16 3.16001C108.2 3.16001 102.4 6.68001 102.4 17.08C102.4 27.52 108.2 31.04 114.16 31.04C120.16 31.04 125.96 27.52 125.96 17.08C125.96 6.68001 120.16 3.16001 114.16 3.16001ZM139.749 31L131.989 11H136.069L143.469 30.04L149.909 11H153.989L161.349 30.04L167.829 11H168.549L161.749 31H157.669L150.269 11.96L143.829 31H139.749ZM171.734 1.28001H175.534V31H171.734V1.28001ZM178.347 8.04001L178.667 7.48001C179.307 7.84001 179.987 8.00001 180.627 8.00001C181.107 8.00001 181.547 7.92001 181.947 7.76001C183.587 7.12001 184.187 5.20001 183.827 3.60001C183.627 4.84001 182.547 5.80001 181.227 5.80001C179.787 5.80001 178.627 4.64001 178.627 3.20001C178.627 1.76001 179.787 0.600006 181.227 0.600006C184.307 0.600006 185.067 3.44001 184.387 5.96001C183.947 7.64001 182.347 8.68001 180.667 8.68001C179.867 8.68001 179.107 8.48001 178.347 8.04001ZM203.998 18.96L201.198 19.36C204.078 20.36 205.598 22.24 205.637 25.44C205.678 30.16 201.918 31.56 196.277 31.56C189.957 31.56 187.037 29.48 187.037 24.6L190.877 24.04C190.877 29.2 191.797 30.96 196.317 30.96C202.638 30.96 203.278 29.04 203.278 26.76C203.278 23.64 200.718 22.64 195.557 21.8C190.397 20.96 187.797 19.64 187.797 15.56C187.797 12.48 190.317 10.48 195.557 10.48C201.598 10.48 203.998 13.92 203.998 18.96ZM196.677 18.32C198.678 18.64 199.398 18.88 200.398 19.12C200.398 14.28 200.318 11.04 195.517 11.04C191.117 11.04 189.637 12.48 189.637 14.8C189.637 16.92 192.077 17.56 196.677 18.32ZM102.84 70.36H119.04V71H98.9999V43.12H102.84V70.36ZM125.852 71H122.052V51H125.852V71ZM130.25 71V40.48H134.05V51.88C135.13 51.32 137.41 50.36 140.77 50.36C147.33 50.36 152.65 51.88 152.65 60.76C152.65 67.44 148.93 71.64 143.13 71.64C138.69 71.64 136.53 69.4 134.85 64.4C134.45 63.2 134.25 62 134.05 60.8V71H130.25ZM140.77 50.92C137.41 50.92 135.13 51.92 134.05 52.48C134.09 56.44 134.33 60.16 135.49 64.16C137.01 69.64 139.61 70.96 143.17 70.96C147.49 70.96 148.73 66.56 148.73 60.72C148.73 52.28 145.73 50.92 140.77 50.92ZM156.031 51H159.831V62.68C160.671 57.76 162.911 50.36 168.911 50.36C171.751 50.36 173.071 52.2 173.071 53.88C173.071 56.16 171.271 57.64 169.271 58.24L169.071 57.6C170.791 57.04 172.391 55.92 172.391 53.88C172.391 52.52 171.311 51.04 168.951 51.04C160.951 51.04 159.831 65.16 159.831 71H156.031V51ZM182.349 71.6C179.109 71.6 173.869 71.08 173.869 63.72C173.869 60.68 175.509 58 179.069 57.04L175.269 54.96C176.829 52.28 179.069 50.44 186.069 50.44C191.149 50.44 195.229 51.52 195.229 58.44V71H191.469V60.96C190.589 66.32 188.949 71.6 182.349 71.6ZM182.309 57.28C179.909 57.28 177.789 59.12 177.789 64.12C177.789 69.36 179.909 71 182.309 71C185.869 71 188.629 69.56 190.109 64.08C190.709 61.88 191.189 59.52 191.349 57.28H182.309ZM179.749 56.84C180.109 56.72 181.269 56.6 182.309 56.6H191.429C191.429 52.56 191.109 50.96 186.069 50.96C181.709 50.96 180.109 53.6 179.749 56.84ZM199.234 51H203.034V62.68C203.874 57.76 206.114 50.36 212.114 50.36C214.954 50.36 216.274 52.2 216.274 53.88C216.274 56.16 214.474 57.64 212.474 58.24L212.274 57.6C213.994 57.04 215.594 55.92 215.594 53.88C215.594 52.52 214.514 51.04 212.154 51.04C204.154 51.04 203.034 65.16 203.034 71H199.234V51ZM230.363 71L218.083 51H222.443L233.523 69.2C236.163 61.72 239.403 52.64 239.963 51H240.683C240.363 51.88 233.723 70.36 231.363 77.28C230.843 78.8 229.243 79.8 227.403 79.8C224.803 79.8 223.083 78.08 222.963 75.4C222.843 72.96 224.963 71 227.403 71H230.363ZM223.643 75.4C223.643 76.96 224.963 79.12 227.323 79.12C228.843 79.12 230.323 78.32 230.763 77.04C231.243 75.64 231.923 73.76 232.643 71.64H227.403C225.323 71.64 223.643 73.32 223.643 75.4Z" fill="#F8F8D8"/>
<path d="M114.16 2.52001L114.163 1.89499L114.157 1.89502L114.16 2.52001ZM114.16 31.64L114.157 32.265H114.163L114.16 31.64ZM99.0249 17.08C99.0249 12.2535 100.831 8.80621 103.586 6.5484C106.359 4.27608 110.148 3.16449 114.163 3.145L114.157 1.89502C109.932 1.91553 105.841 3.08393 102.794 5.58162C99.7285 8.09381 97.7749 11.9065 97.7749 17.08H99.0249ZM114.157 3.145C118.193 3.1645 121.992 4.2764 124.769 6.54873C127.529 8.80648 129.335 12.2535 129.335 17.08H130.585C130.585 11.9065 128.631 8.09354 125.561 5.58129C122.508 3.08362 118.407 1.91549 114.163 1.89499L114.157 3.145ZM129.335 17.08C129.335 22.0097 127.526 25.4539 124.772 27.6842C121.997 29.9306 118.199 30.9955 114.157 31.015L114.163 32.265C118.401 32.2445 122.503 31.1294 125.558 28.6558C128.633 26.1661 130.585 22.3503 130.585 17.08H129.335ZM114.163 31.015C110.142 30.9955 106.353 29.9309 103.584 27.6846C100.833 25.4542 99.0249 22.0097 99.0249 17.08H97.7749C97.7749 22.3503 99.7264 26.1658 102.796 28.6554C105.846 31.1291 109.938 32.2445 114.157 32.265L114.163 31.015ZM114.16 2.53501C111.061 2.53501 107.946 3.45122 105.604 5.77655C103.26 8.10545 101.775 11.7644 101.775 17.08H103.025C103.025 11.9956 104.44 8.69457 106.485 6.66346C108.534 4.6288 111.299 3.78501 114.16 3.78501V2.53501ZM101.775 17.08C101.775 22.415 103.259 26.0838 105.604 28.4179C107.945 30.7487 111.061 31.665 114.16 31.665V30.415C111.299 30.415 108.534 29.5713 106.486 27.5321C104.441 25.4962 103.025 22.185 103.025 17.08H101.775ZM114.16 31.665C117.278 31.665 120.404 30.7493 122.75 28.4185C125.101 26.0842 126.585 22.4149 126.585 17.08H125.335C125.335 22.1851 123.919 25.4958 121.87 27.5315C119.816 29.5707 117.042 30.415 114.16 30.415V31.665ZM126.585 17.08C126.585 11.7644 125.1 8.10511 122.75 5.77605C120.403 3.45067 117.278 2.53501 114.16 2.53501V3.78501C117.042 3.78501 119.817 4.62935 121.87 6.66396C123.92 8.69491 125.335 11.9956 125.335 17.08H126.585ZM139.749 31L139.166 31.2261L139.321 31.625H139.749V31ZM131.989 11V10.375H131.076L131.406 11.2261L131.989 11ZM136.069 11L136.652 10.7736L136.497 10.375H136.069V11ZM143.469 30.04L142.886 30.2664L143.51 31.8702L144.061 30.2403L143.469 30.04ZM149.909 11V10.375H149.461L149.317 10.7997L149.909 11ZM153.989 11L154.572 10.7747L154.417 10.375H153.989V11ZM161.349 30.04L160.766 30.2653L161.386 31.8701L161.941 30.2414L161.349 30.04ZM167.829 11V10.375H167.382L167.237 10.7986L167.829 11ZM168.549 11L169.141 11.2012L169.422 10.375H168.549V11ZM161.749 31V31.625H162.197L162.341 31.2012L161.749 31ZM157.669 31L157.086 31.2264L157.241 31.625H157.669V31ZM150.269 11.96L150.852 11.7336L150.228 10.1298L149.677 11.7597L150.269 11.96ZM143.829 31V31.625H144.277L144.421 31.2003L143.829 31ZM140.332 30.7739L132.572 10.7739L131.406 11.2261L139.166 31.2261L140.332 30.7739ZM131.989 11.625H136.069V10.375H131.989V11.625ZM135.486 11.2264L142.886 30.2664L144.052 29.8136L136.652 10.7736L135.486 11.2264ZM144.061 30.2403L150.501 11.2003L149.317 10.7997L142.877 29.8397L144.061 30.2403ZM149.909 11.625H153.989V10.375H149.909V11.625ZM153.406 11.2253L160.766 30.2653L161.932 29.8147L154.572 10.7747L153.406 11.2253ZM161.941 30.2414L168.421 11.2014L167.237 10.7986L160.757 29.8386L161.941 30.2414ZM167.829 11.625H168.549V10.375H167.829V11.625ZM167.957 10.7988L161.157 30.7988L162.341 31.2012L169.141 11.2012L167.957 10.7988ZM161.749 30.375H157.669V31.625H161.749V30.375ZM158.251 30.7736L150.852 11.7336L149.686 12.1864L157.086 31.2264L158.251 30.7736ZM149.677 11.7597L143.237 30.7997L144.421 31.2003L150.861 12.1603L149.677 11.7597ZM143.829 30.375H139.749V31.625H143.829V30.375ZM171.734 1.28001V0.655007H171.109V1.28001H171.734ZM175.534 1.28001H176.159V0.655007H175.534V1.28001ZM175.534 31V31.625H176.159V31H175.534ZM171.734 31H171.109V31.625H171.734V31ZM171.734 1.90501H175.534V0.655007H171.734V1.90501ZM174.909 1.28001V31H176.159V1.28001H174.909ZM175.534 30.375H171.734V31.625H175.534V30.375ZM172.359 31V1.28001H171.109V31H172.359ZM178.347 8.04001L177.804 7.72992L177.496 8.26952L178.034 8.5809L178.347 8.04001ZM178.667 7.48001L178.973 6.93527L178.432 6.63093L178.124 7.16992L178.667 7.48001ZM181.947 7.76001L181.72 7.17775L181.715 7.17971L181.947 7.76001ZM183.827 3.60001L184.437 3.46281L183.21 3.50049L183.827 3.60001ZM184.387 5.96001L183.783 5.79718L183.782 5.80166L184.387 5.96001ZM178.889 8.3501L179.209 7.7901L178.124 7.16992L177.804 7.72992L178.889 8.3501ZM178.36 8.02475C179.097 8.43908 179.883 8.62501 180.627 8.62501V7.37501C180.091 7.37501 179.517 7.24093 178.973 6.93527L178.36 8.02475ZM180.627 8.62501C181.177 8.62501 181.697 8.53303 182.179 8.34031L181.715 7.17971C181.396 7.30699 181.036 7.37501 180.627 7.37501V8.62501ZM182.174 8.34224C184.199 7.55188 184.839 5.24926 184.437 3.46281L183.217 3.7372C183.535 5.15075 182.974 6.68812 181.72 7.17775L182.174 8.34224ZM183.21 3.50049C183.058 4.44206 182.236 5.17501 181.227 5.17501V6.42501C182.858 6.42501 184.196 5.23796 184.444 3.69953L183.21 3.50049ZM181.227 5.17501C180.132 5.17501 179.252 4.29483 179.252 3.20001H178.002C178.002 4.98519 179.442 6.42501 181.227 6.42501V5.17501ZM179.252 3.20001C179.252 2.10519 180.132 1.22501 181.227 1.22501V-0.0249939C179.442 -0.0249939 178.002 1.41483 178.002 3.20001H179.252ZM181.227 1.22501C182.534 1.22501 183.27 1.80397 183.653 2.60457C184.06 3.45541 184.098 4.63276 183.783 5.79718L184.99 6.12284C185.356 4.76725 185.354 3.26461 184.781 2.06545C184.183 0.816047 182.999 -0.0249939 181.227 -0.0249939V1.22501ZM183.782 5.80166C183.425 7.16508 182.108 8.05501 180.667 8.05501V9.30501C182.586 9.30501 184.468 8.11494 184.991 6.11836L183.782 5.80166ZM180.667 8.05501C179.98 8.05501 179.328 7.8857 178.66 7.49912L178.034 8.5809C178.886 9.07432 179.754 9.30501 180.667 9.30501V8.05501ZM203.998 18.96L204.086 19.5787L204.623 19.5021V18.96H203.998ZM201.198 19.36L201.109 18.7413L200.992 19.9504L201.198 19.36ZM205.637 25.44L206.262 25.4347V25.4322L205.637 25.44ZM187.037 24.6L186.947 23.9815L186.412 24.0595V24.6H187.037ZM190.877 24.04H191.502V23.3172L190.787 23.4215L190.877 24.04ZM196.677 18.32L196.576 18.9366L196.579 18.9372L196.677 18.32ZM200.398 19.12L200.252 19.7277L201.023 19.9127V19.12H200.398ZM203.909 18.3413L201.109 18.7413L201.286 19.9787L204.086 19.5787L203.909 18.3413ZM200.992 19.9504C202.351 20.4221 203.332 21.0812 203.982 21.9496C204.63 22.8152 204.994 23.9475 205.013 25.4478L206.262 25.4322C206.241 23.7325 205.825 22.3248 204.983 21.2004C204.143 20.0788 202.924 19.2979 201.403 18.7696L200.992 19.9504ZM205.013 25.4453C205.022 26.5415 204.811 27.4042 204.437 28.0875C204.064 28.7683 203.511 29.3071 202.777 29.7278C201.284 30.5835 199.071 30.935 196.277 30.935V32.185C199.124 32.185 201.611 31.8365 203.398 30.8122C204.304 30.2929 205.036 29.5967 205.533 28.6875C206.029 27.7808 206.273 26.6985 206.262 25.4347L205.013 25.4453ZM196.277 30.935C193.162 30.935 191.018 30.4175 189.66 29.4084C188.345 28.4306 187.662 26.9077 187.662 24.6H186.412C186.412 27.1723 187.19 29.1294 188.914 30.4116C190.597 31.6625 193.073 32.185 196.277 32.185V30.935ZM187.128 25.2185L190.968 24.6585L190.787 23.4215L186.947 23.9815L187.128 25.2185ZM190.252 24.04C190.252 26.602 190.467 28.534 191.398 29.8044C192.378 31.1414 194.008 31.585 196.317 31.585V30.335C194.107 30.335 193.017 29.8986 192.407 29.0656C191.747 28.166 191.502 26.638 191.502 24.04H190.252ZM196.317 31.585C199.502 31.585 201.432 31.1096 202.559 30.2018C203.742 29.2494 203.903 27.9421 203.903 26.76H202.653C202.653 27.8579 202.493 28.6506 201.776 29.2282C201.003 29.8504 199.453 30.335 196.317 30.335V31.585ZM203.903 26.76C203.903 25.8921 203.724 25.1302 203.336 24.4702C202.948 23.8113 202.379 23.2975 201.666 22.8843C200.269 22.0746 198.232 21.6021 195.658 21.1831L195.457 22.4169C198.043 22.8379 199.866 23.2854 201.039 23.9657C201.611 24.2975 202.004 24.6712 202.258 25.1035C202.511 25.5348 202.653 26.0679 202.653 26.76H203.903ZM195.658 21.1831C193.084 20.7641 191.276 20.2403 190.111 19.3901C189.007 18.585 188.422 17.4412 188.422 15.56H187.172C187.172 17.7588 187.887 19.315 189.374 20.3999C190.799 21.4397 192.871 21.9959 195.457 22.4169L195.658 21.1831ZM188.422 15.56C188.422 14.216 188.959 13.1427 190.067 12.3797C191.206 11.5949 193.003 11.105 195.557 11.105V9.85501C192.872 9.85501 190.788 10.3651 189.358 11.3503C187.896 12.3573 187.172 13.824 187.172 15.56H188.422ZM195.557 11.105C198.459 11.105 200.377 11.9278 201.58 13.2505C202.793 14.5841 203.373 16.5288 203.373 18.96H204.623C204.623 16.3512 204.002 14.0559 202.505 12.4095C200.998 10.7522 198.696 9.85501 195.557 9.85501V11.105ZM196.579 18.9372C198.547 19.2521 199.229 19.4823 200.252 19.7277L200.543 18.5123C199.566 18.2777 198.808 18.0279 196.776 17.7028L196.579 18.9372ZM201.023 19.12C201.023 17.9143 201.018 16.7782 200.933 15.7634C200.848 14.7506 200.68 13.8132 200.33 13.0142C199.973 12.2001 199.427 11.5307 198.609 11.0756C197.803 10.6276 196.782 10.415 195.517 10.415V11.665C196.653 11.665 197.442 11.8574 198.001 12.1682C198.548 12.4718 198.922 12.9149 199.185 13.5158C199.455 14.1318 199.607 14.9119 199.687 15.8678C199.767 16.8218 199.773 17.9057 199.773 19.12H201.023ZM195.517 10.415C193.273 10.415 191.645 10.7778 190.567 11.5395C189.441 12.3349 189.012 13.4915 189.012 14.8H190.262C190.262 13.7885 190.574 13.0651 191.288 12.5605C192.05 12.0222 193.362 11.665 195.517 11.665V10.415ZM189.012 14.8C189.012 15.4624 189.207 16.0419 189.605 16.5316C189.992 17.0071 190.538 17.3602 191.181 17.6423C192.451 18.1994 194.291 18.5591 196.576 18.9366L196.779 17.7034C194.464 17.3208 192.784 16.9806 191.684 16.4977C191.141 16.2598 190.79 16.0079 190.576 15.7434C190.372 15.4931 190.262 15.1976 190.262 14.8H189.012ZM102.84 70.36H102.215V70.985H102.84V70.36ZM119.04 70.36H119.665V69.735H119.04V70.36ZM119.04 71V71.625H119.665V71H119.04ZM98.9999 71H98.3749V71.625H98.9999V71ZM98.9999 43.12V42.495H98.3749V43.12H98.9999ZM102.84 43.12H103.465V42.495H102.84V43.12ZM102.84 70.985H119.04V69.735H102.84V70.985ZM118.415 70.36V71H119.665V70.36H118.415ZM119.04 70.375H98.9999V71.625H119.04V70.375ZM99.6249 71V43.12H98.3749V71H99.6249ZM98.9999 43.745H102.84V42.495H98.9999V43.745ZM102.215 43.12V70.36H103.465V43.12H102.215ZM125.852 71V71.625H126.477V71H125.852ZM122.052 71H121.427V71.625H122.052V71ZM122.052 51V50.375H121.427V51H122.052ZM125.852 51H126.477V50.375H125.852V51ZM125.852 70.375H122.052V71.625H125.852V70.375ZM122.677 71V51H121.427V71H122.677ZM122.052 51.625H125.852V50.375H122.052V51.625ZM125.227 51V71H126.477V51H125.227ZM130.25 71H129.625V71.625H130.25V71ZM130.25 40.48V39.855H129.625V40.48H130.25ZM134.05 40.48H134.675V39.855H134.05V40.48ZM134.05 51.88H133.425V52.9081L134.338 52.4348L134.05 51.88ZM134.85 64.4L134.257 64.5976L134.257 64.5991L134.85 64.4ZM134.05 60.8L134.666 60.6972L133.425 60.8H134.05ZM134.05 71V71.625H134.675V71H134.05ZM134.05 52.48L133.762 51.9252L133.421 52.102L133.425 52.4863L134.05 52.48ZM135.49 64.16L136.092 63.9929L136.09 63.9859L135.49 64.16ZM130.875 71V40.48H129.625V71H130.875ZM130.25 41.105H134.05V39.855H130.25V41.105ZM133.425 40.48V51.88H134.675V40.48H133.425ZM134.338 52.4348C135.353 51.9085 137.534 50.985 140.77 50.985V49.735C137.286 49.735 134.907 50.7315 133.762 51.3252L134.338 52.4348ZM140.77 50.985C144.033 50.985 146.832 51.3704 148.814 52.7437C150.742 54.0799 152.025 56.45 152.025 60.76H153.275C153.275 56.19 151.898 53.3601 149.526 51.7163C147.208 50.1096 144.067 49.735 140.77 49.735V50.985ZM152.025 60.76C152.025 63.9876 151.127 66.5481 149.595 68.2926C148.071 70.0285 145.87 71.015 143.13 71.015V72.265C146.19 72.265 148.749 71.1515 150.535 69.1174C152.313 67.0919 153.275 64.2124 153.275 60.76H152.025ZM143.13 71.015C141.025 71.015 139.538 70.4885 138.375 69.4323C137.188 68.3545 136.271 66.6657 135.442 64.2009L134.257 64.5991C135.109 67.1343 136.112 69.0655 137.535 70.3577C138.982 71.6715 140.795 72.265 143.13 72.265V71.015ZM135.443 64.2024C135.061 63.0562 134.868 61.904 134.666 60.6972L133.433 60.9027C133.632 62.096 133.839 63.3438 134.257 64.5976L135.443 64.2024ZM133.425 60.8V71H134.675V60.8H133.425ZM134.05 70.375H130.25V71.625H134.05V70.375ZM140.77 50.295C137.28 50.295 134.9 51.3352 133.762 51.9252L134.338 53.0348C135.36 52.5048 137.54 51.545 140.77 51.545V50.295ZM133.425 52.4863C133.465 56.4672 133.706 60.2534 134.89 64.3341L136.09 63.9859C134.954 60.0666 134.715 56.4128 134.675 52.4737L133.425 52.4863ZM134.888 64.3271C135.666 67.1341 136.748 68.9762 138.178 70.1055C139.615 71.2412 141.315 71.585 143.17 71.585V70.335C141.465 70.335 140.084 70.0188 138.952 69.1245C137.812 68.2238 136.834 66.6659 136.092 63.9929L134.888 64.3271ZM143.17 71.585C144.362 71.585 145.377 71.2795 146.218 70.6942C147.054 70.1124 147.677 69.2819 148.137 68.2933C149.046 66.3355 149.355 63.6623 149.355 60.72H148.105C148.105 63.6177 147.794 66.0645 147.003 67.7667C146.612 68.6081 146.116 69.2426 145.504 69.6683C144.897 70.0905 144.138 70.335 143.17 70.335V71.585ZM149.355 60.72C149.355 56.4618 148.606 53.7953 147.056 52.2171C145.496 50.6283 143.273 50.295 140.77 50.295V51.545C143.227 51.545 144.984 51.8917 146.164 53.0929C147.354 54.3047 148.105 56.5382 148.105 60.72H149.355ZM156.031 51V50.375H155.406V51H156.031ZM159.831 51H160.456V50.375H159.831V51ZM159.831 62.68H159.206L160.447 62.7852L159.831 62.68ZM169.271 58.24L168.675 58.4264L168.859 59.0162L169.451 58.8386L169.271 58.24ZM169.071 57.6L168.878 57.0057L168.29 57.1969L168.475 57.7864L169.071 57.6ZM159.831 71V71.625H160.456V71H159.831ZM156.031 71H155.406V71.625H156.031V71ZM156.031 51.625H159.831V50.375H156.031V51.625ZM159.206 51V62.68H160.456V51H159.206ZM160.447 62.7852C160.863 60.3506 161.618 57.3561 162.978 54.9862C164.334 52.624 166.223 50.985 168.911 50.985V49.735C165.599 49.735 163.368 51.796 161.894 54.3638C160.425 56.9239 159.639 60.0894 159.215 62.5748L160.447 62.7852ZM168.911 50.985C170.19 50.985 171.066 51.3957 171.619 51.9368C172.179 52.4842 172.446 53.2008 172.446 53.88H173.696C173.696 52.8792 173.304 51.8358 172.493 51.0432C171.676 50.2443 170.472 49.735 168.911 49.735V50.985ZM172.446 53.88C172.446 55.7656 170.961 57.0804 169.092 57.6414L169.451 58.8386C171.581 58.1996 173.696 56.5544 173.696 53.88H172.446ZM169.868 58.0536L169.668 57.4136L168.475 57.7864L168.675 58.4264L169.868 58.0536ZM169.265 58.1943C171.062 57.6091 173.016 56.341 173.016 53.88H171.766C171.766 55.499 170.52 56.4709 168.878 57.0057L169.265 58.1943ZM173.016 53.88C173.016 53.0363 172.681 52.1608 171.988 51.4982C171.289 50.8305 170.267 50.415 168.951 50.415V51.665C169.996 51.665 170.693 51.9895 171.124 52.4018C171.561 52.8192 171.766 53.3637 171.766 53.88H173.016ZM168.951 50.415C166.739 50.415 165.006 51.4013 163.68 52.9275C162.368 54.4366 161.445 56.4785 160.793 58.6501C159.487 62.9958 159.206 68.0564 159.206 71H160.456C160.456 68.1036 160.736 63.1842 161.99 59.0098C162.617 56.9215 163.475 55.0684 164.623 53.7475C165.756 52.4437 167.163 51.665 168.951 51.665V50.415ZM159.831 70.375H156.031V71.625H159.831V70.375ZM156.656 71V51H155.406V71H156.656ZM179.069 57.04L179.231 57.6434L180.733 57.2385L179.369 56.4918L179.069 57.04ZM175.269 54.96L174.729 54.6456L174.406 55.2001L174.969 55.5082L175.269 54.96ZM195.229 71V71.625H195.854V71H195.229ZM191.469 71H190.844V71.625H191.469V71ZM191.469 60.96H192.094L190.852 60.8587L191.469 60.96ZM190.109 64.08L189.506 63.9156L189.505 63.917L190.109 64.08ZM191.349 57.28L191.972 57.3245L192.02 56.655H191.349V57.28ZM179.749 56.84L179.128 56.771L179.02 57.7418L179.946 57.4329L179.749 56.84ZM191.429 56.6V57.225H192.054V56.6H191.429ZM182.349 70.975C180.738 70.975 178.774 70.8387 177.22 69.887C175.727 68.973 174.494 67.2293 174.494 63.72H173.244C173.244 67.5707 174.63 69.767 176.567 70.953C178.443 72.1013 180.719 72.225 182.349 72.225V70.975ZM174.494 63.72C174.494 62.3122 174.873 61.0164 175.638 59.9688C176.401 58.9249 177.575 58.0902 179.231 57.6434L178.906 56.4366C177.003 56.9498 175.576 57.9351 174.629 59.2312C173.685 60.5236 173.244 62.0878 173.244 63.72H174.494ZM179.369 56.4918L175.569 54.4118L174.969 55.5082L178.769 57.5882L179.369 56.4918ZM175.809 55.2744C176.548 54.0038 177.418 52.9811 178.903 52.2567C180.411 51.5209 182.613 51.065 186.069 51.065V49.815C182.524 49.815 180.106 50.2791 178.355 51.1333C176.58 51.9989 175.549 53.2362 174.729 54.6456L175.809 55.2744ZM186.069 51.065C188.598 51.065 190.715 51.342 192.2 52.3604C193.629 53.3401 194.604 55.1064 194.604 58.44H195.854C195.854 54.8536 194.789 52.6199 192.907 51.3296C191.082 50.078 188.62 49.815 186.069 49.815V51.065ZM194.604 58.44V71H195.854V58.44H194.604ZM195.229 70.375H191.469V71.625H195.229V70.375ZM192.094 71V60.96H190.844V71H192.094ZM190.852 60.8587C190.413 63.5323 189.798 66.0722 188.536 67.94C187.308 69.7563 185.443 70.975 182.349 70.975V72.225C185.854 72.225 188.109 70.8037 189.572 68.64C190.999 66.5278 191.644 63.7477 192.085 61.0613L190.852 60.8587ZM182.309 56.655C180.935 56.655 179.612 57.19 178.652 58.4453C177.708 59.6792 177.164 61.5433 177.164 64.12H178.414C178.414 61.6967 178.929 60.1408 179.645 59.2047C180.345 58.29 181.283 57.905 182.309 57.905V56.655ZM177.164 64.12C177.164 66.8095 177.705 68.6898 178.656 69.9092C179.626 71.1545 180.955 71.625 182.309 71.625V70.375C181.262 70.375 180.331 70.0255 179.642 69.1408C178.932 68.2302 178.414 66.6705 178.414 64.12H177.164ZM182.309 71.625C184.172 71.625 185.908 71.2474 187.377 70.085C188.839 68.9276 189.952 67.0577 190.712 64.243L189.505 63.917C188.785 66.5823 187.779 68.1724 186.601 69.105C185.429 70.0326 184.005 70.375 182.309 70.375V71.625ZM190.712 64.2444C191.318 62.02 191.808 59.6179 191.972 57.3245L190.725 57.2355C190.569 59.4221 190.099 61.74 189.506 63.9156L190.712 64.2444ZM191.349 56.655H182.309V57.905H191.349V56.655ZM179.946 57.4329C180.051 57.3982 180.364 57.3425 180.834 57.2971C181.281 57.2539 181.811 57.225 182.309 57.225V55.975C181.767 55.975 181.197 56.0061 180.713 56.0529C180.253 56.0975 179.807 56.1618 179.551 56.2471L179.946 57.4329ZM182.309 57.225H191.429V55.975H182.309V57.225ZM192.054 56.6C192.054 55.5911 192.034 54.6907 191.918 53.9208C191.801 53.1471 191.578 52.4496 191.13 51.8792C190.221 50.7206 188.594 50.335 186.069 50.335V51.585C188.583 51.585 189.636 51.9994 190.147 52.6508C190.409 52.9854 190.582 53.4454 190.682 54.108C190.783 54.7743 190.804 55.5889 190.804 56.6H192.054ZM186.069 50.335C183.754 50.335 182.083 51.0413 180.951 52.2595C179.835 53.4602 179.315 55.0796 179.128 56.771L180.37 56.909C180.542 55.3604 181.003 54.0398 181.866 53.1105C182.714 52.1987 184.023 51.585 186.069 51.585V50.335ZM199.234 51V50.375H198.609V51H199.234ZM203.034 51H203.659V50.375H203.034V51ZM203.034 62.68H202.409L203.65 62.7852L203.034 62.68ZM212.474 58.24L211.878 58.4264L212.062 59.0162L212.654 58.8386L212.474 58.24ZM212.274 57.6L212.081 57.0057L211.494 57.1969L211.678 57.7864L212.274 57.6ZM203.034 71V71.625H203.659V71H203.034ZM199.234 71H198.609V71.625H199.234V71ZM199.234 51.625H203.034V50.375H199.234V51.625ZM202.409 51V62.68H203.659V51H202.409ZM203.65 62.7852C204.066 60.3506 204.821 57.3561 206.181 54.9862C207.537 52.624 209.427 50.985 212.114 50.985V49.735C208.802 49.735 206.571 51.796 205.097 54.3638C203.628 56.9239 202.843 60.0894 202.418 62.5748L203.65 62.7852ZM212.114 50.985C213.393 50.985 214.269 51.3957 214.822 51.9368C215.382 52.4842 215.649 53.2008 215.649 53.88H216.899C216.899 52.8792 216.507 51.8358 215.696 51.0432C214.88 50.2443 213.675 49.735 212.114 49.735V50.985ZM215.649 53.88C215.649 55.7656 214.165 57.0804 212.295 57.6414L212.654 58.8386C214.784 58.1996 216.899 56.5544 216.899 53.88H215.649ZM213.071 58.0536L212.871 57.4136L211.678 57.7864L211.878 58.4264L213.071 58.0536ZM212.468 58.1943C214.265 57.6091 216.219 56.341 216.219 53.88H214.969C214.969 55.499 213.723 56.4709 212.081 57.0057L212.468 58.1943ZM216.219 53.88C216.219 53.0363 215.885 52.1608 215.191 51.4982C214.493 50.8305 213.47 50.415 212.154 50.415V51.665C213.199 51.665 213.896 51.9895 214.328 52.4018C214.764 52.8192 214.969 53.3637 214.969 53.88H216.219ZM212.154 50.415C209.942 50.415 208.209 51.4013 206.883 52.9275C205.571 54.4366 204.648 56.4785 203.996 58.6501C202.69 62.9958 202.409 68.0564 202.409 71H203.659C203.659 68.1036 203.939 63.1842 205.193 59.0098C205.82 56.9215 206.678 55.0684 207.826 53.7475C208.959 52.4437 210.366 51.665 212.154 51.665V50.415ZM203.034 70.375H199.234V71.625H203.034V70.375ZM199.859 71V51H198.609V71H199.859ZM230.363 71V71.625H231.48L230.895 70.673L230.363 71ZM218.083 51V50.375H216.966L217.55 51.327L218.083 51ZM222.443 51L222.977 50.675L222.794 50.375H222.443V51ZM233.523 69.2L232.989 69.525L233.674 70.65L234.112 69.408L233.523 69.2ZM239.963 51V50.375H239.516L239.371 50.798L239.963 51ZM240.683 51L241.27 51.2136L241.575 50.375H240.683V51ZM222.963 75.4L223.587 75.372V75.3693L222.963 75.4ZM232.643 71.64L233.235 71.841L233.515 71.015H232.643V71.64ZM230.895 70.673L218.615 50.673L217.55 51.327L229.83 71.327L230.895 70.673ZM218.083 51.625H222.443V50.375H218.083V51.625ZM221.909 51.325L232.989 69.525L234.057 68.875L222.977 50.675L221.909 51.325ZM234.112 69.408C236.75 61.9349 239.993 52.8458 240.554 51.202L239.371 50.798C238.813 52.4342 235.576 61.5051 232.933 68.992L234.112 69.408ZM239.963 51.625H240.683V50.375H239.963V51.625ZM240.095 50.7864C239.775 51.6668 233.133 70.1519 230.771 77.0783L231.954 77.4823C234.312 70.5687 240.95 52.0932 241.27 51.2136L240.095 50.7864ZM230.771 77.0783C230.356 78.2932 229.035 79.175 227.403 79.175V80.425C229.45 80.425 231.33 79.3074 231.954 77.4823L230.771 77.0783ZM227.403 79.175C226.245 79.175 225.331 78.7953 224.693 78.1616C224.053 77.5257 223.641 76.5838 223.587 75.372L222.338 75.428C222.404 76.8962 222.912 78.1543 223.812 79.0484C224.714 79.9447 225.96 80.425 227.403 80.425V79.175ZM223.587 75.3693C223.487 73.3335 225.271 71.625 227.403 71.625V70.375C224.655 70.375 222.199 72.5865 222.339 75.4307L223.587 75.3693ZM227.403 71.625H230.363V70.375H227.403V71.625ZM223.018 75.4C223.018 76.3384 223.407 77.4097 224.122 78.2499C224.848 79.1036 225.934 79.745 227.323 79.745V78.495C226.352 78.495 225.598 78.0564 225.074 77.4401C224.538 76.8103 224.268 76.0216 224.268 75.4H223.018ZM227.323 79.745C229.012 79.745 230.799 78.8573 231.354 77.2432L230.172 76.8368C229.847 77.7827 228.674 78.495 227.323 78.495V79.745ZM231.354 77.2432C231.824 75.8735 232.52 73.9454 233.235 71.841L232.051 71.439C231.326 73.5746 230.662 75.4065 230.172 76.8368L231.354 77.2432ZM232.643 71.015H227.403V72.265H232.643V71.015ZM227.403 71.015C224.978 71.015 223.018 72.9748 223.018 75.4H224.268C224.268 73.6652 225.668 72.265 227.403 72.265V71.015Z" fill="#F8F8D8"/>
</g>
<path d="M151.561 36L152 35.5607L152.439 36L152 36.4393L151.561 36Z" fill="#F8F8D8" stroke="#F8F8D8" stroke-width="1.5"/>
<line x1="98.85" y1="36.15" x2="147.15" y2="36.15" stroke="#F8F8D8" stroke-width="1.7" stroke-linecap="square"/>
<line x1="156.85" y1="36.15" x2="205.15" y2="36.15" stroke="#F8F8D8" stroke-width="1.7" stroke-linecap="square"/>
<defs>
<clipPath id="clip0_246_13">
<rect width="143" height="80" fill="white" transform="translate(98)"/>
</clipPath>
</defs>
</svg>
