<svg width="60" height="60" viewBox="0 0 60 60" fill="none" xmlns="http://www.w3.org/2000/svg">
<path d="M33.75 3.75V16.875C33.75 18.3668 34.3426 19.7976 35.3975 20.8525C36.4524 21.9074 37.8832 22.5 39.375 22.5H52.5V50.625C52.5 52.1168 51.9074 53.5476 50.8525 54.6025C49.7976 55.6574 48.3668 56.25 46.875 56.25H32.4862C36.4772 53.4508 39.3478 49.3285 40.5886 44.6143C41.8295 39.9001 41.3604 34.8987 39.2647 30.4974C37.169 26.0961 33.5821 22.5794 29.1403 20.571C24.6984 18.5627 19.6888 18.1925 15 19.5262V9.375C15 7.88316 15.5926 6.45242 16.6475 5.39752C17.7024 4.34263 19.1332 3.75 20.625 3.75H33.75ZM37.5 4.6875V16.875C37.5 17.3723 37.6975 17.8492 38.0492 18.2008C38.4008 18.5525 38.8777 18.75 39.375 18.75H51.5625L37.5 4.6875ZM37.5 39.375C37.5 43.8505 35.7221 48.1427 32.5574 51.3074C29.3927 54.4721 25.1005 56.25 20.625 56.25C16.1495 56.25 11.8572 54.4721 8.69257 51.3074C5.5279 48.1427 3.75 43.8505 3.75 39.375C3.75 34.8995 5.5279 30.6072 8.69257 27.4426C11.8572 24.2779 16.1495 22.5 20.625 22.5C25.1005 22.5 29.3927 24.2779 32.5574 27.4426C35.7221 30.6072 37.5 34.8995 37.5 39.375ZM22.5 31.875C22.5 31.3777 22.3025 30.9008 21.9508 30.5492C21.5992 30.1975 21.1223 30 20.625 30C20.1277 30 19.6508 30.1975 19.2992 30.5492C18.9475 30.9008 18.75 31.3777 18.75 31.875V37.5H13.125C12.6277 37.5 12.1508 37.6975 11.7992 38.0492C11.4475 38.4008 11.25 38.8777 11.25 39.375C11.25 39.8723 11.4475 40.3492 11.7992 40.7008C12.1508 41.0525 12.6277 41.25 13.125 41.25H18.75V46.875C18.75 47.3723 18.9475 47.8492 19.2992 48.2008C19.6508 48.5525 20.1277 48.75 20.625 48.75C21.1223 48.75 21.5992 48.5525 21.9508 48.2008C22.3025 47.8492 22.5 47.3723 22.5 46.875V41.25H28.125C28.6223 41.25 29.0992 41.0525 29.4508 40.7008C29.8025 40.3492 30 39.8723 30 39.375C30 38.8777 29.8025 38.4008 29.4508 38.0492C29.0992 37.6975 28.6223 37.5 28.125 37.5H22.5V31.875Z" fill="#F8F8D8"/>
</svg>
