<svg width="110" height="110" viewBox="0 0 110 110" fill="none" xmlns="http://www.w3.org/2000/svg">
<circle cx="55" cy="55" r="52.5" fill="#8C2A2A" stroke="#F8E8E8" stroke-width="5"/>
<path d="M85.6958 70.8867L61.7837 29.3598C61.0911 28.1753 60.1004 27.1928 58.9102 26.51C57.72 25.8272 56.3718 25.4679 54.9997 25.4679C53.6276 25.4679 52.2793 25.8272 51.0892 26.51C49.899 27.1928 48.9083 28.1753 48.2157 29.3598L24.3036 70.8867C23.6315 72.0362 23.2773 73.3437 23.2773 74.6752C23.2773 76.0067 23.6315 77.3142 24.3036 78.4637C24.9885 79.6541 25.9778 80.6408 27.17 81.3227C28.3622 82.0045 29.7143 82.357 31.0876 82.3438H78.9118C80.2842 82.356 81.6352 82.0031 82.8263 81.3213C84.0174 80.6395 85.0058 79.6533 85.6903 78.4637C86.3632 77.3147 86.7183 76.0074 86.7193 74.6759C86.7203 73.3444 86.367 72.0367 85.6958 70.8867ZM80.0083 75.1797C79.8971 75.3692 79.7367 75.5251 79.5442 75.631C79.3517 75.7369 79.1341 75.7888 78.9145 75.7813H31.0876C30.868 75.7888 30.6504 75.7369 30.4579 75.631C30.2654 75.5251 30.105 75.3692 29.9938 75.1797C29.8995 75.0263 29.8496 74.8498 29.8496 74.6697C29.8496 74.4897 29.8995 74.3132 29.9938 74.1598L53.9059 32.6328C54.0243 32.4506 54.1864 32.3008 54.3774 32.1971C54.5684 32.0934 54.7823 32.0391 54.9997 32.0391C55.217 32.0391 55.4309 32.0934 55.6219 32.1971C55.813 32.3008 55.975 32.4506 56.0934 32.6328L80.0028 74.1598C80.098 74.3126 80.1488 74.4889 80.1498 74.669C80.1508 74.849 80.1018 75.0258 80.0083 75.1797ZM51.7184 57.1875V48.4375C51.7184 47.5673 52.0641 46.7327 52.6795 46.1173C53.2948 45.502 54.1294 45.1563 54.9997 45.1563C55.8699 45.1563 56.7045 45.502 57.3199 46.1173C57.9352 46.7327 58.2809 47.5673 58.2809 48.4375V57.1875C58.2809 58.0578 57.9352 58.8923 57.3199 59.5077C56.7045 60.1231 55.8699 60.4688 54.9997 60.4688C54.1294 60.4688 53.2948 60.1231 52.6795 59.5077C52.0641 58.8923 51.7184 58.0578 51.7184 57.1875ZM59.3747 68.125C59.3747 68.9903 59.1181 69.8362 58.6374 70.5556C58.1566 71.2751 57.4734 71.8358 56.6739 72.167C55.8745 72.4981 54.9948 72.5848 54.1462 72.4159C53.2975 72.2471 52.518 71.8305 51.9061 71.2186C51.2942 70.6067 50.8776 69.8272 50.7087 68.9785C50.5399 68.1299 50.6266 67.2502 50.9577 66.4508C51.2888 65.6513 51.8496 64.9681 52.5691 64.4873C53.2885 64.0066 54.1344 63.75 54.9997 63.75C56.16 63.75 57.2728 64.2109 58.0933 65.0314C58.9137 65.8519 59.3747 66.9647 59.3747 68.125Z" fill="#F8E8E8"/>
</svg>
