<svg width="40" height="40" viewBox="0 0 40 40" fill="none" xmlns="http://www.w3.org/2000/svg">
<path d="M18.3251 7.8V14.2667C18.3251 14.8021 18.2193 15.3323 18.0139 15.8268C17.8085 16.3213 17.5075 16.7703 17.1281 17.1481C16.7487 17.526 16.2984 17.8252 15.8031 18.0286C15.3078 18.232 14.7772 18.3355 14.2417 18.3333H7.80839C7.27439 18.3366 6.74524 18.232 6.25265 18.0258C5.76005 17.8196 5.31417 17.516 4.94172 17.1333C4.56358 16.7583 4.26413 16.3116 4.06093 15.8194C3.85772 15.3271 3.75487 14.7992 3.75839 14.2667V7.81667C3.75838 6.741 4.18454 5.70915 4.94359 4.94698C5.70264 4.18481 6.73273 3.75441 7.80839 3.75H14.2584C14.7918 3.75051 15.3199 3.85684 15.8119 4.06282C16.304 4.2688 16.7503 4.57035 17.1251 4.95C17.5042 5.32164 17.8056 5.76504 18.0116 6.25435C18.2176 6.74366 18.3242 7.26909 18.3251 7.8ZM36.2417 7.81667V14.2667C36.2331 15.3397 35.8041 16.3665 35.0469 17.1268C34.2898 17.8871 33.2647 18.3203 32.1917 18.3333H25.7251C24.6471 18.3267 23.6136 17.9026 22.8417 17.15C22.4646 16.7708 22.1659 16.321 21.9629 15.8262C21.7598 15.3314 21.6563 14.8015 21.6584 14.2667V7.81667C21.657 7.28295 21.7625 6.75436 21.9686 6.26203C22.1747 5.76971 22.4772 5.3236 22.8584 4.95C23.2331 4.57035 23.6794 4.2688 24.1715 4.06282C24.6636 3.85684 25.1916 3.75051 25.7251 3.75H32.1751C33.2509 3.75871 34.2802 4.18996 35.041 4.95073C35.8018 5.7115 36.233 6.74081 36.2417 7.81667ZM36.2417 25.7333V32.1833C36.2331 33.2563 35.8041 34.2832 35.0469 35.0435C34.2898 35.8038 33.2647 36.2369 32.1917 36.25H25.7251C24.6402 36.261 23.5938 35.8484 22.8084 35.1C22.4297 34.7219 22.1301 34.2723 21.927 33.7773C21.7238 33.2822 21.6212 32.7517 21.6251 32.2167V25.7667C21.6237 25.2329 21.7292 24.7044 21.9353 24.212C22.1414 23.7197 22.4439 23.2736 22.8251 22.9C23.1998 22.5203 23.6461 22.2188 24.1382 22.0128C24.6302 21.8068 25.1583 21.7005 25.6917 21.7H32.1417C33.2176 21.7087 34.2469 22.14 35.0077 22.9007C35.7684 23.6615 36.1997 24.6908 36.2084 25.7667L36.2417 25.7333ZM18.3251 25.75V32.2C18.3119 33.2758 17.8765 34.3034 17.1126 35.061C16.3487 35.8187 15.3176 36.2457 14.2417 36.25H7.80839C7.27592 36.2522 6.74828 36.149 6.25592 35.9462C5.76355 35.7435 5.31621 35.4452 4.93969 35.0687C4.56317 34.6922 4.26494 34.2448 4.06219 33.7525C3.85943 33.2601 3.75618 32.7325 3.75839 32.2V25.75C3.76268 24.6741 4.18971 23.643 4.94736 22.8791C5.70501 22.1152 6.73257 21.6798 7.80839 21.6667H14.2584C15.3387 21.6777 16.3725 22.108 17.1417 22.8667C17.9019 23.6335 18.3273 24.6702 18.3251 25.75Z" fill="#F8F8D8"/>
</svg>
