<svg width="40" height="40" viewBox="0 0 40 40" fill="none" xmlns="http://www.w3.org/2000/svg">
<path d="M36.8078 30.2703L31.6219 5.61407C31.5379 5.21097 31.3751 4.82844 31.1428 4.48845C30.9106 4.14847 30.6134 3.85774 30.2684 3.63297C29.9234 3.40821 29.5374 3.25383 29.1326 3.17873C28.7277 3.10362 28.312 3.10926 27.9094 3.19532L20.5953 4.76719C19.9229 4.91299 19.3181 5.27858 18.8766 5.80626C18.5933 5.36711 18.2045 5.006 17.7456 4.75596C17.2868 4.50592 16.7726 4.37494 16.25 4.37501H8.75C7.9212 4.37501 7.12634 4.70425 6.54029 5.2903C5.95424 5.87635 5.625 6.6712 5.625 7.50001V32.5C5.625 33.3288 5.95424 34.1237 6.54029 34.7097C7.12634 35.2958 7.9212 35.625 8.75 35.625H16.25C17.0788 35.625 17.8737 35.2958 18.4597 34.7097C19.0458 34.1237 19.375 33.3288 19.375 32.5V14.1016L23.3781 33.1359C23.524 33.8379 23.9069 34.4684 24.4625 34.9216C25.0181 35.3748 25.7127 35.6232 26.4297 35.625C26.6519 35.6248 26.8734 35.6012 27.0906 35.5547L34.4047 33.9828C35.2139 33.8059 35.9204 33.3166 36.3705 32.6213C36.8206 31.9259 36.9777 31.081 36.8078 30.2703ZM23.1547 13.8516L29.2484 12.5422L29.6437 14.4172L23.55 15.7266L23.1547 13.8516ZM24.3203 19.3984L30.4141 18.0891L31.8453 24.8984L25.7516 26.2078L24.3203 19.3984ZM28.0797 6.99376L28.475 8.86876L22.3813 10.1781L21.9859 8.30313L28.0797 6.99376ZM9.375 13.75H15.625V26.25H9.375V13.75ZM15.625 8.12501V10H9.375V8.12501H15.625ZM9.375 31.875V30H15.625V31.875H9.375ZM26.9203 31.7563L26.525 29.8813L32.6187 28.5719L33.0141 30.4469L26.9203 31.7563Z" fill="#F8F8D8" fill-opacity="0.5"/>
</svg>
