<svg width="60" height="60" viewBox="0 0 60 60" fill="none" xmlns="http://www.w3.org/2000/svg">
<path d="M32.725 50H12.5V15H7.5V50C7.5 51.3261 8.02678 52.5979 8.96447 53.5355C9.90215 54.4732 11.1739 55 12.5 55H34.525C33.6056 53.4662 32.9942 51.7679 32.725 50ZM47.5 5H35V17.5L30 13.75L25 17.5V5H22.5C21.1739 5 19.9021 5.52678 18.9645 6.46447C18.0268 7.40215 17.5 8.67392 17.5 10V40C17.5 41.3261 18.0268 42.5979 18.9645 43.5355C19.9021 44.4732 21.1739 45 22.5 45H32.725C33.0891 42.8441 33.92 40.7938 35.1597 38.9928C36.3994 37.1917 38.0179 35.6835 39.9017 34.5737C41.7856 33.4638 43.8893 32.7793 46.0655 32.5679C48.2417 32.3565 50.4378 32.6235 52.5 33.35V10C52.5 8.67392 51.9732 7.40215 51.0355 6.46447C50.0979 5.52678 48.8261 5 47.5 5ZM50 37.5V45H57.5V50H50V57.5H45V50H37.5V45H45V37.5H50Z" fill="#F8F8D8"/>
</svg>
