<svg width="40" height="40" viewBox="0 0 40 40" fill="none" xmlns="http://www.w3.org/2000/svg">
<path fill-rule="evenodd" clip-rule="evenodd" d="M9.99984 3.33333C9.11578 3.33333 8.26794 3.68452 7.64281 4.30964C7.01769 4.93476 6.6665 5.78261 6.6665 6.66666V31.6667C6.6665 32.9927 7.19329 34.2645 8.13097 35.2022C9.06865 36.1399 10.3404 36.6667 11.6665 36.6667H31.6665C32.1085 36.6667 32.5325 36.4911 32.845 36.1785C33.1576 35.8659 33.3332 35.442 33.3332 35C33.3332 34.558 33.1576 34.134 32.845 33.8215C32.5325 33.5089 32.1085 33.3333 31.6665 33.3333H28.3332V30H31.6665C32.1085 30 32.5325 29.8244 32.845 29.5118C33.1576 29.1993 33.3332 28.7754 33.3332 28.3333V6.66666C33.3332 5.78261 32.982 4.93476 32.3569 4.30964C31.7317 3.68452 30.8839 3.33333 29.9998 3.33333H16.6665V30H24.9998V33.3333H11.6665C11.2245 33.3333 10.8006 33.1577 10.488 32.8452C10.1754 32.5326 9.99984 32.1087 9.99984 31.6667C9.99984 31.2246 10.1754 30.8007 10.488 30.4881C10.8006 30.1756 11.2245 30 11.6665 30H13.3332V3.33333H9.99984Z" fill="#F8F8D8"/>
</svg>
