<svg width="110" height="110" viewBox="0 0 110 110" fill="none" xmlns="http://www.w3.org/2000/svg">
<circle cx="55" cy="55" r="52.5" fill="#8C2A2A" stroke="#F8E8E8" stroke-width="5"/>
<path d="M64.0355 56.8492L57.9164 53.3171V40.4167C57.9164 39.6431 57.6091 38.9013 57.0621 38.3543C56.5151 37.8073 55.7732 37.5 54.9997 37.5C54.2261 37.5 53.4843 37.8073 52.9373 38.3543C52.3903 38.9013 52.083 39.6431 52.083 40.4167V55C52.083 55.512 52.2178 56.0149 52.4738 56.4583C52.7298 56.9017 53.098 57.2699 53.5414 57.5258L61.1189 61.9008C61.4507 62.0954 61.8177 62.2224 62.1988 62.2745C62.5799 62.3266 62.9676 62.3028 63.3395 62.2045C63.7113 62.1061 64.0601 61.9352 64.3656 61.7016C64.6712 61.4679 64.9275 61.1762 65.1198 60.843C65.3122 60.5099 65.4367 60.1421 65.4863 59.7606C65.5359 59.3792 65.5095 58.9917 65.4087 58.6205C65.3079 58.2493 65.1347 57.9017 64.8991 57.5977C64.6634 57.2937 64.3699 57.0393 64.0355 56.8492ZM54.9997 25.8333C49.2311 25.8333 43.592 27.5439 38.7956 30.7488C33.9991 33.9537 30.2608 38.5089 28.0532 43.8384C25.8456 49.1679 25.268 55.0324 26.3935 60.6901C27.5189 66.3479 30.2967 71.5449 34.3757 75.624C38.4548 79.703 43.6518 82.4809 49.3096 83.6063C54.9673 84.7317 60.8318 84.1541 66.1613 81.9465C71.4908 79.7389 76.046 76.0006 79.2509 71.2041C82.4558 66.4077 84.1664 60.7686 84.1664 55C84.1586 47.2669 81.0832 39.8527 75.6151 34.3846C70.147 28.9165 62.7328 25.8411 54.9997 25.8333ZM54.9997 78.3333C50.3848 78.3333 45.8735 76.9649 42.0364 74.401C38.1992 71.8371 35.2085 68.1929 33.4425 63.9293C31.6765 59.6657 31.2144 54.9741 32.1147 50.4479C33.015 45.9217 35.2373 41.7641 38.5005 38.5009C41.7638 35.2376 45.9214 33.0153 50.4476 32.115C54.9738 31.2147 59.6654 31.6768 63.929 33.4428C68.1926 35.2089 71.8367 38.1996 74.4006 42.0367C76.9645 45.8739 78.333 50.3851 78.333 55C78.3253 61.186 75.8645 67.1165 71.4903 71.4906C67.1161 75.8648 61.1857 78.3256 54.9997 78.3333Z" fill="#F8E8E8"/>
</svg>
