<svg width="40" height="40" viewBox="0 0 40 40" fill="none" xmlns="http://www.w3.org/2000/svg">
<path d="M19.9996 3.33333C21.5613 3.33333 23.0829 3.51333 24.5429 3.85167C24.7591 3.89824 24.9638 3.98734 25.1451 4.11379C25.3265 4.24023 25.4808 4.4015 25.5992 4.58819C25.7177 4.77487 25.7978 4.98326 25.8349 5.2012C25.872 5.41914 25.8653 5.64229 25.8154 5.85764C25.7654 6.073 25.6731 6.27627 25.5438 6.4556C25.4145 6.63493 25.2508 6.78675 25.0623 6.90222C24.8738 7.01768 24.6642 7.09449 24.4457 7.12816C24.2272 7.16183 24.0042 7.15169 23.7896 7.09833C22.9677 6.9075 22.1326 6.77935 21.2913 6.715L20.5913 6.67667L21.1579 6.71C23.5688 6.89315 25.8991 7.6596 27.9479 8.94333L28.4029 9.24L29.4129 8.23C29.7122 7.92791 30.1156 7.75161 30.5405 7.73719C30.9655 7.72278 31.3799 7.87133 31.6989 8.15244C32.0179 8.43356 32.2175 8.82597 32.2566 9.24937C32.2958 9.67277 32.1716 10.0951 31.9096 10.43L31.7713 10.5867L30.9463 11.4117C33.2788 13.9012 34.693 17.1115 34.9555 20.5129C35.2181 23.9143 34.3134 27.3036 32.3906 30.1216C30.4678 32.9397 27.6418 35.0181 24.3789 36.014C21.116 37.0099 17.6111 36.8638 14.4424 35.5998C11.2737 34.3358 8.63047 32.0294 6.94888 29.0611C5.26729 26.0928 4.64775 22.64 5.19248 19.2723C5.7372 15.9045 7.41365 12.8231 9.94525 10.5363C12.4768 8.24947 15.7123 6.89395 19.1179 6.69333L19.4496 6.67667L19.3496 6.67833C18.4874 6.71278 17.6452 6.80944 16.8229 6.96833L16.2096 7.09833C15.7819 7.19049 15.3352 7.1108 14.9658 6.87647C14.5963 6.64213 14.3339 6.27194 14.235 5.84578C14.1361 5.41962 14.2087 4.97167 14.4372 4.5986C14.6657 4.22552 15.0317 3.95725 15.4563 3.85167C16.9163 3.51333 18.4396 3.33333 19.9996 3.33333ZM19.9996 13.3333C19.5576 13.3333 19.1337 13.5089 18.8211 13.8215C18.5085 14.134 18.3329 14.558 18.3329 15V21.6667C18.3329 22.1087 18.5085 22.5326 18.8211 22.8452C19.1337 23.1577 19.5576 23.3333 19.9996 23.3333C20.4416 23.3333 20.8656 23.1577 21.1781 22.8452C21.4907 22.5326 21.6663 22.1087 21.6663 21.6667V15C21.6663 14.558 21.4907 14.134 21.1781 13.8215C20.8656 13.5089 20.4416 13.3333 19.9996 13.3333Z" fill="#F8F8D8"/>
</svg>
