<svg width="40" height="40" viewBox="0 0 40 40" fill="none" xmlns="http://www.w3.org/2000/svg">
<path fill-rule="evenodd" clip-rule="evenodd" d="M6.46447 4.79781C7.40215 3.86013 8.67392 3.33334 10 3.33334H20C21.3261 3.33334 22.5979 3.86013 23.5355 4.79781C24.4732 5.73549 25 7.00726 25 8.33334V18.3333H16.6667C16.2246 18.3333 15.8007 18.5089 15.4882 18.8215C15.1756 19.1341 15 19.558 15 20C15 20.442 15.1756 20.866 15.4882 21.1785C15.8007 21.4911 16.2246 21.6667 16.6667 21.6667H25V31.6667C25 32.9928 24.4732 34.2645 23.5355 35.2022C22.5979 36.1399 21.3261 36.6667 20 36.6667H10C8.67392 36.6667 7.40215 36.1399 6.46447 35.2022C5.52678 34.2645 5 32.9928 5 31.6667V8.33334C5 7.00726 5.52678 5.73549 6.46447 4.79781Z" fill="#F8F8D8" fill-opacity="0.5"/>
<path d="M28.3333 11.667C27.8914 11.667 27.4675 11.8426 27.155 12.155C26.8425 12.4676 26.667 12.8914 26.667 13.3333C26.667 13.7753 26.8425 14.1991 27.155 14.5117L30.9767 18.3333H25V21.6667H30.9767L27.155 25.4883C26.8514 25.8027 26.6834 26.2237 26.6872 26.6607C26.691 27.0977 26.8663 27.5157 27.1753 27.8247C27.4843 28.1337 27.9023 28.309 28.3393 28.3128C28.7763 28.3166 29.1973 28.1486 29.5117 27.845L36.1783 21.1783C36.4908 20.8658 36.6663 20.442 36.6663 20C36.6663 19.5581 36.4908 19.1342 36.1783 18.8217L29.5117 12.155C29.1991 11.8426 28.7753 11.667 28.3333 11.667Z" fill="#F8F8D8"/>
<path d="M15.4882 21.1785C15.8007 21.4911 16.2246 21.6667 16.6667 21.6667H25V18.3333H16.6667C16.2246 18.3333 15.8007 18.5089 15.4882 18.8215C15.1756 19.1341 15 19.558 15 20C15 20.442 15.1756 20.866 15.4882 21.1785Z" fill="#F8F8D8"/>
</svg>
