<svg width="50" height="50" viewBox="0 0 50 50" fill="none" xmlns="http://www.w3.org/2000/svg">
<path fill-rule="evenodd" clip-rule="evenodd" d="M24.835 45.67C27.5711 45.67 30.2804 45.1311 32.8082 44.084C35.336 43.037 37.6329 41.5023 39.5676 39.5676C41.5023 37.6329 43.037 35.336 44.084 32.8082C45.1311 30.2804 45.67 27.5711 45.67 24.835C45.67 22.0989 45.1311 19.3896 44.084 16.8618C43.037 14.334 41.5023 12.0371 39.5676 10.1024C37.6329 8.16772 35.336 6.63303 32.8082 5.58597C30.2804 4.53891 27.5711 4 24.835 4C19.3092 4 14.0097 6.19511 10.1024 10.1024C6.19511 14.0097 4 19.3092 4 24.835C4 30.3608 6.19511 35.6602 10.1024 39.5676C14.0097 43.4749 19.3092 45.67 24.835 45.67ZM24.2979 33.2616L35.8729 19.3716L32.3171 16.4084L22.3626 28.3515L17.2117 23.1983L13.9383 26.4717L20.8833 33.4167L22.6751 35.2085L24.2979 33.2616Z" fill="#C28989"/>
</svg>
